<svg width="21" height="21" viewBox="0 0 21 21" fill="none" xmlns="http://www.w3.org/2000/svg">
    <path
        d="M2.229 0.538261C1.53651 0.538261 0.979004 1.09576 0.979004 1.78826V19.2883C0.979004 19.9808 1.53651 20.5383 2.229 20.5383H19.729C20.4215 20.5383 20.979 19.9808 20.979 19.2883V1.78826C20.979 1.09576 20.4215 0.538261 19.729 0.538261H2.229ZM10.9497 3.26531C12.7724 3.26531 14.3408 4.50308 14.3408 6.8615C14.3408 8.39531 13.6231 9.95094 12.6831 10.9191H12.688C12.3274 12.0154 12.9043 12.276 12.9956 12.3058C15.1804 13.0565 17.9449 14.9289 17.8833 17.8112H4.07227C4.01696 14.794 7.51379 12.7214 8.79883 12.3058C8.93665 12.2559 9.59474 11.8984 9.22607 10.9313C8.28029 9.96545 7.56592 8.40163 7.56592 6.8615C7.56592 4.50251 9.12591 3.26531 10.9497 3.26531Z"
        fill="current" />
</svg>    