<svg width="20" height="20" viewBox="0 0 20 20" fill="none" xmlns="http://www.w3.org/2000/svg">
    <path
        d="M12.7273 12.5C10.3 12.5 5.45455 14.1625 5.45455 17.5V20H20V17.5C20 14.1625 15.1545 12.5 12.7273 12.5ZM4.54545 7.5V3.75H2.72727V7.5H0V10H2.72727V13.75H4.54545V10H7.27273V7.5H4.54545ZM12.7273 10C13.6917 10 14.6166 9.47322 15.2986 8.53553C15.9805 7.59785 16.3636 6.32608 16.3636 5C16.3636 3.67392 15.9805 2.40215 15.2986 1.46447C14.6166 0.526784 13.6917 0 12.7273 0C11.7628 0 10.8379 0.526784 10.156 1.46447C9.47402 2.40215 9.09091 3.67392 9.09091 5C9.09091 6.32608 9.47402 7.59785 10.156 8.53553C10.8379 9.47322 11.7628 10 12.7273 10Z"
        fill="current" />
</svg>
    