<svg width="20" height="20" viewBox="0 0 20 20" fill="none" xmlns="http://www.w3.org/2000/svg">
    <path
        d="M10.0003 1.66666C5.40866 1.66666 1.66699 5.40832 1.66699 9.99999C1.66699 14.5917 5.40866 18.3333 10.0003 18.3333C14.592 18.3333 18.3337 14.5917 18.3337 9.99999C18.3337 5.40832 14.592 1.66666 10.0003 1.66666ZM11.492 12.5C11.7337 12.7417 11.7337 13.1417 11.492 13.3833C11.367 13.5083 11.2087 13.5667 11.0503 13.5667C10.892 13.5667 10.7337 13.5083 10.6087 13.3833L7.66699 10.4417C7.42533 10.2 7.42533 9.79999 7.66699 9.55832L10.6087 6.61666C10.8503 6.37499 11.2503 6.37499 11.492 6.61666C11.7337 6.85832 11.7337 7.25832 11.492 7.49999L8.99199 9.99999L11.492 12.5Z"
        fill="current" fill-opacity="current" />
</svg>
    