<svg width="20" height="20" viewBox="0 0 20 20" fill="none" xmlns="http://www.w3.org/2000/svg">
    <path
        d="M10.0003 1.66666C5.40866 1.66666 1.66699 5.40832 1.66699 9.99999C1.66699 14.5917 5.40866 18.3333 10.0003 18.3333C14.592 18.3333 18.3337 14.5917 18.3337 9.99999C18.3337 5.40832 14.592 1.66666 10.0003 1.66666ZM12.3253 10.4417L9.38366 13.3833C9.25866 13.5083 9.10033 13.5667 8.94199 13.5667C8.78366 13.5667 8.62533 13.5083 8.50033 13.3833C8.25866 13.1417 8.25866 12.7417 8.50033 12.5L11.0003 9.99999L8.50033 7.49999C8.25866 7.25832 8.25866 6.85832 8.50033 6.61666C8.74199 6.37499 9.14199 6.37499 9.38366 6.61666L12.3253 9.55832C12.5753 9.79999 12.5753 10.2 12.3253 10.4417Z"
        fill="current" fill-opacity="current" />
</svg>
    