<svg width="20" height="20" viewBox="0 0 20 20" fill="none" xmlns="http://www.w3.org/2000/svg">
    <path
        d="M4.09091 20C3.38182 20 2.76364 19.5263 2.46364 18.8421L0.0909091 8.88421L0 8.42105C0 8.14188 0.0957789 7.87414 0.266267 7.67673C0.436754 7.47932 0.667985 7.36842 0.909091 7.36842H5.07273L9.25455 0.452632C9.41818 0.178947 9.69091 0 10 0C10.3091 0 10.5909 0.178947 10.7545 0.463158L14.9273 7.36842H19.0909C19.332 7.36842 19.5632 7.47932 19.7337 7.67673C19.9042 7.87414 20 8.14188 20 8.42105L19.9636 8.72632L17.5364 18.8421C17.2364 19.5263 16.6182 20 15.9091 20H4.09091ZM10 2.88421L7.27273 7.36842H12.7273L10 2.88421ZM10 11.5789C9.51779 11.5789 9.05533 11.8008 8.71435 12.1956C8.37338 12.5904 8.18182 13.1259 8.18182 13.6842C8.18182 14.2426 8.37338 14.778 8.71435 15.1729C9.05533 15.5677 9.51779 15.7895 10 15.7895C10.4822 15.7895 10.9447 15.5677 11.2856 15.1729C11.6266 14.778 11.8182 14.2426 11.8182 13.6842C11.8182 13.1259 11.6266 12.5904 11.2856 12.1956C10.9447 11.8008 10.4822 11.5789 10 11.5789Z"
        fill="current" />
</svg>    