<svg width="20" height="20" viewBox="0 0 20 20" fill="none" xmlns="http://www.w3.org/2000/svg">
    <path
        d="M10 20C4.48372 20 0 15.5163 0 10C0 4.48372 4.48372 0 10 0C15.5163 0 20 4.48372 20 10C20 15.5163 15.5163 20 10 20ZM10 1.39535C5.25581 1.39535 1.39535 5.25581 1.39535 10C1.39535 14.7442 5.25581 18.6047 10 18.6047C14.7442 18.6047 18.6047 14.7442 18.6047 10C18.6047 5.25581 14.7442 1.39535 10 1.39535Z"
        fill="current" />
    <path
        d="M13.451 13.6558C13.3301 13.6558 13.2091 13.6279 13.0975 13.5535L10.2138 11.8326C9.49752 11.4047 8.96729 10.4651 8.96729 9.63721V5.82327C8.96729 5.44187 9.28356 5.1256 9.66496 5.1256C10.0464 5.1256 10.3626 5.44187 10.3626 5.82327V9.63721C10.3626 9.9721 10.6417 10.4651 10.9301 10.6326L13.8138 12.3535C14.1487 12.5488 14.251 12.9767 14.0557 13.3116C13.9161 13.5349 13.6836 13.6558 13.451 13.6558Z"
        fill="current" />
</svg>