<svg width="44" height="30" viewBox="0 0 44 30" fill="none" xmlns="http://www.w3.org/2000/svg">
    <path
        d="M35.3226 9.19356L36.3976 8.21808C36.1223 7.91479 35.732 7.74193 35.3226 7.74193V9.19356ZM42.0968 16.6589H43.5484C43.5484 16.2983 43.4141 15.9505 43.1718 15.6834L42.0968 16.6589ZM42.0968 24.6774L42.097 26.129C42.8987 26.1288 43.5484 25.4791 43.5484 24.6774H42.0968ZM28.5484 9.19356V7.74193C27.7467 7.74193 27.0968 8.39188 27.0968 9.19356H28.5484ZM1.45162 0C0.649904 0 0 0.649916 0 1.45161C0 2.25331 0.649904 2.90322 1.45162 2.90322V0ZM28.5484 1.45161H30C30 0.649916 29.3501 0 28.5484 0V1.45161ZM7.25845 23.2258C6.45674 23.2256 5.80667 23.8754 5.80646 24.677C5.80622 25.4787 6.45597 26.1288 7.25766 26.129L7.25845 23.2258ZM8.22581 14.5161C9.0275 14.5161 9.67742 13.8662 9.67742 13.0645C9.67742 12.2628 9.0275 11.6129 8.22581 11.6129V14.5161ZM5.32259 11.6129C4.52087 11.6129 3.87097 12.2628 3.87097 13.0645C3.87097 13.8662 4.52087 14.5161 5.32259 14.5161V11.6129ZM8.22581 20.3226C9.0275 20.3226 9.67742 19.6727 9.67742 18.871C9.67742 18.0693 9.0275 17.4194 8.22581 17.4194V20.3226ZM7.25807 17.4194C6.45635 17.4194 5.80646 18.0693 5.80646 18.871C5.80646 19.6727 6.45635 20.3226 7.25807 20.3226V17.4194ZM8.22581 8.70969C9.0275 8.70969 9.67742 8.05976 9.67742 7.25806C9.67742 6.45636 9.0275 5.80645 8.22581 5.80645V8.70969ZM3.3871 5.80645C2.58539 5.80645 1.93549 6.45636 1.93549 7.25806C1.93549 8.05976 2.58539 8.70969 3.3871 8.70969V5.80645ZM34.2476 10.169L41.0218 17.6344L43.1718 15.6834L36.3976 8.21808L34.2476 10.169ZM40.6452 16.6589V24.6774H43.5484V16.6589H40.6452ZM42.0966 23.2258L38.0605 23.2264L38.0609 26.1296L42.097 26.129L42.0966 23.2258ZM39.4295 24.1945C38.8326 22.5047 37.2213 21.2903 35.3226 21.2903V24.1936C35.9524 24.1936 36.4922 24.5956 36.692 25.1615L39.4295 24.1945ZM35.3226 21.2903C33.4239 21.2903 31.8124 22.5047 31.2155 24.1945L33.9531 25.1615C34.153 24.5956 34.6926 24.1936 35.3226 24.1936V21.2903ZM32.5845 23.2264L28.5486 23.2258L28.5482 26.129L32.5841 26.1296L32.5845 23.2264ZM30 24.6774V9.19356H27.0968V24.6774H30ZM28.5484 10.6452H35.3226V7.74193H28.5484V10.6452ZM1.45162 2.90322H28.5484V0H1.45162V2.90322ZM27.0968 1.45161V24.6774H30V1.45161H27.0968ZM28.5486 23.2258L14.8349 23.2264L14.8351 26.1296L28.5482 26.129L28.5486 23.2258ZM16.2037 24.1945C15.6068 22.5047 13.9955 21.2903 12.0968 21.2903V24.1936C12.7266 24.1936 13.2664 24.5956 13.4662 25.1615L16.2037 24.1945ZM12.0968 21.2903C10.1981 21.2903 8.5867 22.5047 7.9898 24.1945L10.7273 25.1615C10.9272 24.5956 11.4669 24.1936 12.0968 24.1936V21.2903ZM9.35894 23.2264L7.25845 23.2258L7.25766 26.129L9.35814 26.1296L9.35894 23.2264ZM35.3226 24.1936C36.1243 24.1936 36.7742 24.8435 36.7742 25.6452H39.6774C39.6774 23.2401 37.7276 21.2903 35.3226 21.2903V24.1936ZM36.7742 25.6452C36.7742 26.4468 36.1243 27.0968 35.3226 27.0968V30C37.7276 30 39.6774 28.0502 39.6774 25.6452H36.7742ZM35.3226 27.0968C34.5209 27.0968 33.871 26.4468 33.871 25.6452H30.9678C30.9678 28.0502 32.9174 30 35.3226 30V27.0968ZM33.871 25.6452C33.871 24.8435 34.5209 24.1936 35.3226 24.1936V21.2903C32.9174 21.2903 30.9678 23.2401 30.9678 25.6452H33.871ZM12.0968 24.1936C12.8985 24.1936 13.5484 24.8435 13.5484 25.6452H16.4516C16.4516 23.2401 14.5019 21.2903 12.0968 21.2903V24.1936ZM13.5484 25.6452C13.5484 26.4468 12.8985 27.0968 12.0968 27.0968V30C14.5019 30 16.4516 28.0502 16.4516 25.6452H13.5484ZM12.0968 27.0968C11.2951 27.0968 10.6452 26.4468 10.6452 25.6452H7.74194C7.74194 28.0502 9.69167 30 12.0968 30V27.0968ZM10.6452 25.6452C10.6452 24.8435 11.2951 24.1936 12.0968 24.1936V21.2903C9.69167 21.2903 7.74194 23.2401 7.74194 25.6452H10.6452ZM8.22581 11.6129H5.32259V14.5161H8.22581V11.6129ZM8.22581 17.4194H7.25807V20.3226H8.22581V17.4194ZM8.22581 5.80645H3.3871V8.70969H8.22581V5.80645ZM31.2155 24.1945C31.0547 24.6501 30.9678 25.139 30.9678 25.6452H33.871C33.871 25.4729 33.9002 25.3109 33.9531 25.1615L31.2155 24.1945ZM39.6774 25.6452C39.6774 25.139 39.5905 24.6501 39.4295 24.1945L36.692 25.1615C36.7448 25.3109 36.7742 25.4729 36.7742 25.6452H39.6774ZM7.9898 24.1945C7.82886 24.6501 7.74194 25.139 7.74194 25.6452H10.6452C10.6452 25.4729 10.6745 25.3109 10.7273 25.1615L7.9898 24.1945ZM16.4516 25.6452C16.4516 25.139 16.3647 24.6501 16.2037 24.1945L13.4662 25.1615C13.519 25.3109 13.5484 25.4729 13.5484 25.6452H16.4516Z"
        fill="current" />
</svg>
    