<svg width="20" height="20" viewBox="0 0 20 20" fill="none" xmlns="http://www.w3.org/2000/svg">
    <path
        d="M1.66667 0H18.3333C19.2083 0 20 1.05556 20 2.22222V17.7778C20 18.9444 19.2083 20 18.3333 20H1.66667C0.791667 20 0 18.9444 0 17.7778V2.22222C0 1.05556 0.791667 0 1.66667 0ZM11.6667 3.33333V4.44444H18.3333V3.33333H11.6667ZM11.6667 5.55556V6.66667H17.9167H18.3333V5.55556H11.6667ZM11.6667 7.77778V8.88889H17.5V7.77778H11.6667ZM6.66667 12.1222C5 12.1222 1.66667 13.3333 1.66667 15.5556V16.6667H11.6667V15.5556C11.6667 13.3333 8.33333 12.1222 6.66667 12.1222ZM6.66667 3.33333C6.00363 3.33333 5.36774 3.68452 4.8989 4.30964C4.43006 4.93477 4.16667 5.78261 4.16667 6.66667C4.16667 7.55072 4.43006 8.39857 4.8989 9.02369C5.36774 9.64881 6.00363 10 6.66667 10C7.32971 10 7.96559 9.64881 8.43443 9.02369C8.90327 8.39857 9.16667 7.55072 9.16667 6.66667C9.16667 5.78261 8.90327 4.93477 8.43443 4.30964C7.96559 3.68452 7.32971 3.33333 6.66667 3.33333Z"
        fill="current" />
</svg>