<svg width="25" height="20" viewBox="0 0 25 20" fill="none" xmlns="http://www.w3.org/2000/svg">
    <path
        d="M6.81818 13.3333C5.56818 13.3333 4.54545 11.8333 4.54545 10C4.54545 8.16667 5.56818 6.66667 6.81818 6.66667C8.06818 6.66667 9.09091 8.16667 9.09091 10C9.09091 11.8333 8.06818 13.3333 6.81818 13.3333ZM13.1818 6.66667C12.2727 2.83333 9.77273 0 6.81818 0C3.06818 0 0 4.5 0 10C0 15.5 3.06818 20 6.81818 20C9.77273 20 12.2727 17.1667 13.1818 13.3333H17.0455V20H21.5909V13.3333H25V6.66667H13.1818Z"
        fill="current" />
</svg>
    