<svg width="28" height="21" viewBox="0 0 28 21" fill="none" xmlns="http://www.w3.org/2000/svg">
    <path
        d="M21.979 18.5383C22.5312 18.5383 22.979 18.9861 22.979 19.5383C22.979 20.0291 22.6252 20.4375 22.1587 20.5221L21.979 20.5383H1.979C1.42672 20.5383 0.979004 20.0905 0.979004 19.5383C0.979004 19.0474 1.33276 18.6391 1.79925 18.5544L1.979 18.5383H21.979ZM31.979 12.5383C32.5312 12.5383 32.979 12.9861 32.979 13.5383C32.979 14.0905 32.5312 14.5383 31.979 14.5383H1.979C1.42672 14.5383 0.979004 14.0905 0.979004 13.5383C0.979004 12.9861 1.42672 12.5383 1.979 12.5383H31.979ZM31.979 6.53826C32.5312 6.53826 32.979 6.98598 32.979 7.53826C32.979 8.02918 32.6252 8.43748 32.1587 8.52215L31.979 8.53826H1.979C1.42672 8.53826 0.979004 8.09054 0.979004 7.53826C0.979004 7.04735 1.33276 6.63905 1.79925 6.55437L1.979 6.53826H31.979ZM31.979 0.538261C32.5312 0.538261 32.979 0.985981 32.979 1.53826C32.979 2.02918 32.6252 2.43748 32.1587 2.52215L31.979 2.53826H1.979C1.42672 2.53826 0.979004 2.09054 0.979004 1.53826C0.979004 1.04735 1.33276 0.639045 1.79925 0.554373L1.979 0.538261H31.979Z"
        fill="current" fill-opacity="current" />
</svg>
    