<svg width="29" height="29" viewBox="0 0 29 29" fill="none" xmlns="http://www.w3.org/2000/svg">
    <path
        d="M24.3127 1.70493V5.20493H27.8127V7.53827H24.3127V11.0383H21.9793V7.53827H18.4793V5.20493H21.9793V1.70493H24.3127ZM14.9793 15.7049C13.696 15.7049 12.646 14.6549 12.646 13.3716C12.646 12.0883 13.696 11.0383 14.9793 11.0383C16.2627 11.0383 17.3127 12.0883 17.3127 13.3716C17.3127 14.6549 16.2627 15.7049 14.9793 15.7049ZM16.146 4.10827V6.46493C15.7601 6.40395 15.37 6.37275 14.9793 6.3716C11.071 6.3716 7.97933 9.36993 7.97933 13.6049C7.97933 16.3349 10.2543 19.9516 14.9793 24.2683C19.7043 19.9516 21.9793 16.3466 21.9793 13.6049V13.3716H24.3127V13.6049C24.3127 17.4783 21.1977 22.0633 14.9793 27.3716C8.761 22.0633 5.646 17.4783 5.646 13.6049C5.646 7.79493 10.0793 4.03827 14.9793 4.03827C15.376 4.03827 15.761 4.0616 16.146 4.10827Z"
        fill="current" fill-opacity="current" />
</svg>
    