<svg width="20" height="20" viewBox="0 0 20 20" fill="none" xmlns="http://www.w3.org/2000/svg">
    <path
        d="M18.3333 1.5L16.6667 0L15 1.5L13.3333 0L11.6667 1.5L10 0L8.33333 1.5L6.66667 0L5 1.5L3.33333 0L1.66667 1.5L0 0V20L1.66667 18.5L3.33333 20L5 18.5L6.66667 20L8.33333 18.5L10 20L11.6667 18.5L13.3333 20L15 18.5L16.6667 20L18.3333 18.5L20 20V0L18.3333 1.5ZM17.7778 17.09H2.22222V2.91H17.7778V17.09ZM3.33333 13H16.6667V15H3.33333V13ZM3.33333 9H16.6667V11H3.33333V9ZM3.33333 5H16.6667V7H3.33333V5Z"
        fill="current" />
</svg>