<svg width="20" height="20" viewBox="0 0 20 20" fill="none" xmlns="http://www.w3.org/2000/svg">
    <path
        d="M15.4545 18.125C15.0929 18.125 14.746 17.9275 14.4903 17.5758C14.2346 17.2242 14.0909 16.7473 14.0909 16.25C14.0909 15.7527 14.2346 15.2758 14.4903 14.9242C14.746 14.5725 15.0929 14.375 15.4545 14.375C15.8162 14.375 16.163 14.5725 16.4188 14.9242C16.6745 15.2758 16.8182 15.7527 16.8182 16.25C16.8182 16.7473 16.6745 17.2242 16.4188 17.5758C16.163 17.9275 15.8162 18.125 15.4545 18.125ZM16.8182 6.875L18.6 10H14.5455V6.875H16.8182ZM4.54545 18.125C4.1838 18.125 3.83695 17.9275 3.58122 17.5758C3.32549 17.2242 3.18182 16.7473 3.18182 16.25C3.18182 15.7527 3.32549 15.2758 3.58122 14.9242C3.83695 14.5725 4.1838 14.375 4.54545 14.375C4.90711 14.375 5.25396 14.5725 5.50969 14.9242C5.76542 15.2758 5.90909 15.7527 5.90909 16.25C5.90909 16.7473 5.76542 17.2242 5.50969 17.5758C5.25396 17.9275 4.90711 18.125 4.54545 18.125ZM17.2727 5H14.5455V0H1.81818C0.809091 0 0 1.1125 0 2.5V16.25H1.81818C1.81818 17.2446 2.10552 18.1984 2.61698 18.9017C3.12844 19.6049 3.82214 20 4.54545 20C5.26877 20 5.96247 19.6049 6.47393 18.9017C6.98539 18.1984 7.27273 17.2446 7.27273 16.25H12.7273C12.7273 17.2446 13.0146 18.1984 13.5261 18.9017C14.0375 19.6049 14.7312 20 15.4545 20C16.1779 20 16.8716 19.6049 17.383 18.9017C17.8945 18.1984 18.1818 17.2446 18.1818 16.25H20V10L17.2727 5Z"
        fill="current" />
</svg>