<svg
    width="356"
    height="127"
    viewBox="0 0 356 127"
    fill="none"
    xmlns="http://www.w3.org/2000/svg"
>
    <g opacity="0.5">
        <path
            d="M35 9.83803H339"
            stroke="white"
            stroke-dasharray="4 4"
        />
        <path
            d="M35 38.4577H339"
            stroke="white"
            stroke-dasharray="4 4"
        />
        <path
            d="M35 67.0775H339"
            stroke="white"
            stroke-dasharray="4 4"
        />
        <path
            d="M35 96.5916H339"
            stroke="white"
            stroke-dasharray="4 4"
        />
    </g>
    <path
        d="M35 100.5L73.5 102L113 59L153.5 56L190 26L228 51L267.5 76.5L307 70.5L344.5 26"
        stroke="white"
        stroke-width="3"
    />
    <circle cx="35" cy="100" r="6" fill="white" />
    <circle cx="74" cy="102" r="6" fill="white" />
    <circle cx="113" cy="59" r="6" fill="white" />
    <circle cx="152" cy="56" r="6" fill="white" />
    <circle cx="190" cy="26" r="6" fill="white" />
    <circle cx="228" cy="51" r="6" fill="white" />
    <circle cx="267" cy="76" r="6" fill="white" />
    <circle cx="306" cy="70" r="6" fill="white" />
    <circle cx="345" cy="26" r="6" fill="white" />
    <path
        d="M6.05566 5.0332H6.16504V6.10645H6.05566C5.38574 6.10645 4.8252 6.21582 4.37402 6.43457C3.92285 6.64876 3.5651 6.93815 3.30078 7.30273C3.03646 7.66276 2.84505 8.06836 2.72656 8.51953C2.61263 8.9707 2.55566 9.42871 2.55566 9.89355V11.3564C2.55566 11.7985 2.60807 12.1904 2.71289 12.5322C2.81771 12.8695 2.96126 13.1543 3.14355 13.3867C3.32585 13.6191 3.53092 13.7946 3.75879 13.9131C3.99121 14.0316 4.23275 14.0908 4.4834 14.0908C4.77507 14.0908 5.03483 14.0361 5.2627 13.9268C5.49056 13.8128 5.68197 13.6556 5.83691 13.4551C5.99642 13.25 6.11719 13.0085 6.19922 12.7305C6.28125 12.4525 6.32227 12.1471 6.32227 11.8145C6.32227 11.5182 6.28581 11.2334 6.21289 10.96C6.13997 10.682 6.02832 10.4359 5.87793 10.2217C5.72754 10.0029 5.53841 9.83203 5.31055 9.70898C5.08724 9.58138 4.82064 9.51758 4.51074 9.51758C4.15983 9.51758 3.83171 9.60417 3.52637 9.77734C3.22559 9.94596 2.97721 10.1693 2.78125 10.4473C2.58984 10.7207 2.48047 11.0192 2.45312 11.3428L1.7832 11.3359C1.84701 10.8255 1.96549 10.3903 2.13867 10.0303C2.31641 9.66569 2.53516 9.36947 2.79492 9.1416C3.05924 8.90918 3.35319 8.74056 3.67676 8.63574C4.00488 8.52637 4.35124 8.47168 4.71582 8.47168C5.21257 8.47168 5.64095 8.5651 6.00098 8.75195C6.361 8.9388 6.65723 9.18945 6.88965 9.50391C7.12207 9.8138 7.29297 10.1647 7.40234 10.5566C7.51628 10.944 7.57324 11.3428 7.57324 11.7529C7.57324 12.2223 7.50716 12.6621 7.375 13.0723C7.24284 13.4824 7.0446 13.8424 6.78027 14.1523C6.52051 14.4622 6.19922 14.7038 5.81641 14.877C5.43359 15.0501 4.98926 15.1367 4.4834 15.1367C3.94564 15.1367 3.47624 15.0273 3.0752 14.8086C2.67415 14.5853 2.34147 14.2891 2.07715 13.9199C1.81283 13.5508 1.61458 13.1406 1.48242 12.6895C1.35026 12.2383 1.28418 11.7803 1.28418 11.3154V10.7207C1.28418 10.0189 1.35482 9.33073 1.49609 8.65625C1.63737 7.98177 1.88118 7.37109 2.22754 6.82422C2.57845 6.27734 3.0638 5.84212 3.68359 5.51855C4.30339 5.19499 5.09408 5.0332 6.05566 5.0332ZM15.3252 9.23047V10.748C15.3252 11.5638 15.2523 12.252 15.1064 12.8125C14.9606 13.373 14.751 13.8242 14.4775 14.166C14.2041 14.5078 13.8737 14.7562 13.4863 14.9111C13.1035 15.0615 12.6706 15.1367 12.1875 15.1367C11.8047 15.1367 11.4515 15.0889 11.1279 14.9932C10.8044 14.8975 10.5127 14.7448 10.2529 14.5352C9.99772 14.321 9.77897 14.043 9.59668 13.7012C9.41439 13.3594 9.27539 12.9447 9.17969 12.457C9.08398 11.9694 9.03613 11.3997 9.03613 10.748V9.23047C9.03613 8.41471 9.10905 7.73112 9.25488 7.17969C9.40527 6.62826 9.61719 6.1862 9.89062 5.85352C10.1641 5.51628 10.4922 5.27474 10.875 5.12891C11.2624 4.98307 11.6953 4.91016 12.1738 4.91016C12.5612 4.91016 12.9167 4.95801 13.2402 5.05371C13.5684 5.14486 13.86 5.29297 14.1152 5.49805C14.3704 5.69857 14.5869 5.96745 14.7646 6.30469C14.9469 6.63737 15.0859 7.04525 15.1816 7.52832C15.2773 8.01139 15.3252 8.57878 15.3252 9.23047ZM14.0537 10.9531V9.01855C14.0537 8.57194 14.0264 8.18001 13.9717 7.84277C13.9215 7.50098 13.8464 7.20931 13.7461 6.96777C13.6458 6.72624 13.5182 6.53027 13.3633 6.37988C13.2129 6.22949 13.0374 6.12012 12.8369 6.05176C12.641 5.97884 12.4199 5.94238 12.1738 5.94238C11.873 5.94238 11.6064 5.99935 11.374 6.11328C11.1416 6.22266 10.9456 6.39811 10.7861 6.63965C10.6312 6.88118 10.5127 7.19792 10.4307 7.58984C10.3486 7.98177 10.3076 8.45801 10.3076 9.01855V10.9531C10.3076 11.3997 10.3327 11.7939 10.3828 12.1357C10.4375 12.4775 10.5173 12.7738 10.6221 13.0244C10.7269 13.2705 10.8545 13.4733 11.0049 13.6328C11.1553 13.7923 11.3285 13.9108 11.5244 13.9883C11.7249 14.0612 11.946 14.0977 12.1875 14.0977C12.4974 14.0977 12.7686 14.0384 13.001 13.9199C13.2334 13.8014 13.4271 13.6169 13.582 13.3662C13.7415 13.111 13.86 12.7852 13.9375 12.3887C14.015 11.9876 14.0537 11.5091 14.0537 10.9531ZM23.2002 9.23047V10.748C23.2002 11.5638 23.1273 12.252 22.9814 12.8125C22.8356 13.373 22.626 13.8242 22.3525 14.166C22.0791 14.5078 21.7487 14.7562 21.3613 14.9111C20.9785 15.0615 20.5456 15.1367 20.0625 15.1367C19.6797 15.1367 19.3265 15.0889 19.0029 14.9932C18.6794 14.8975 18.3877 14.7448 18.1279 14.5352C17.8727 14.321 17.654 14.043 17.4717 13.7012C17.2894 13.3594 17.1504 12.9447 17.0547 12.457C16.959 11.9694 16.9111 11.3997 16.9111 10.748V9.23047C16.9111 8.41471 16.984 7.73112 17.1299 7.17969C17.2803 6.62826 17.4922 6.1862 17.7656 5.85352C18.0391 5.51628 18.3672 5.27474 18.75 5.12891C19.1374 4.98307 19.5703 4.91016 20.0488 4.91016C20.4362 4.91016 20.7917 4.95801 21.1152 5.05371C21.4434 5.14486 21.735 5.29297 21.9902 5.49805C22.2454 5.69857 22.4619 5.96745 22.6396 6.30469C22.8219 6.63737 22.9609 7.04525 23.0566 7.52832C23.1523 8.01139 23.2002 8.57878 23.2002 9.23047ZM21.9287 10.9531V9.01855C21.9287 8.57194 21.9014 8.18001 21.8467 7.84277C21.7965 7.50098 21.7214 7.20931 21.6211 6.96777C21.5208 6.72624 21.3932 6.53027 21.2383 6.37988C21.0879 6.22949 20.9124 6.12012 20.7119 6.05176C20.516 5.97884 20.2949 5.94238 20.0488 5.94238C19.748 5.94238 19.4814 5.99935 19.249 6.11328C19.0166 6.22266 18.8206 6.39811 18.6611 6.63965C18.5062 6.88118 18.3877 7.19792 18.3057 7.58984C18.2236 7.98177 18.1826 8.45801 18.1826 9.01855V10.9531C18.1826 11.3997 18.2077 11.7939 18.2578 12.1357C18.3125 12.4775 18.3923 12.7738 18.4971 13.0244C18.6019 13.2705 18.7295 13.4733 18.8799 13.6328C19.0303 13.7923 19.2035 13.9108 19.3994 13.9883C19.5999 14.0612 19.821 14.0977 20.0625 14.0977C20.3724 14.0977 20.6436 14.0384 20.876 13.9199C21.1084 13.8014 21.3021 13.6169 21.457 13.3662C21.6165 13.111 21.735 12.7852 21.8125 12.3887C21.89 11.9876 21.9287 11.5091 21.9287 10.9531Z"
        fill="white"
    />
    <path
        d="M7.92871 40.2701V41.3092H0.737305V40.5641L5.19434 33.6666H6.22656L5.11914 35.6627L2.17285 40.2701H7.92871ZM6.54102 33.6666V43.6197H5.27637V33.6666H6.54102ZM15.3252 37.8502V39.3678C15.3252 40.1835 15.2523 40.8717 15.1064 41.4322C14.9606 41.9928 14.751 42.4439 14.4775 42.7857C14.2041 43.1275 13.8737 43.3759 13.4863 43.5309C13.1035 43.6812 12.6706 43.7564 12.1875 43.7564C11.8047 43.7564 11.4515 43.7086 11.1279 43.6129C10.8044 43.5172 10.5127 43.3645 10.2529 43.1549C9.99772 42.9407 9.77897 42.6627 9.59668 42.3209C9.41439 41.9791 9.27539 41.5644 9.17969 41.0768C9.08398 40.5891 9.03613 40.0195 9.03613 39.3678V37.8502C9.03613 37.0344 9.10905 36.3508 9.25488 35.7994C9.40527 35.248 9.61719 34.8059 9.89062 34.4732C10.1641 34.136 10.4922 33.8945 10.875 33.7486C11.2624 33.6028 11.6953 33.5299 12.1738 33.5299C12.5612 33.5299 12.9167 33.5777 13.2402 33.6734C13.5684 33.7646 13.86 33.9127 14.1152 34.1178C14.3704 34.3183 14.5869 34.5872 14.7646 34.9244C14.9469 35.2571 15.0859 35.665 15.1816 36.148C15.2773 36.6311 15.3252 37.1985 15.3252 37.8502ZM14.0537 39.5728V37.6383C14.0537 37.1917 14.0264 36.7997 13.9717 36.4625C13.9215 36.1207 13.8464 35.829 13.7461 35.5875C13.6458 35.346 13.5182 35.15 13.3633 34.9996C13.2129 34.8492 13.0374 34.7398 12.8369 34.6715C12.641 34.5986 12.4199 34.5621 12.1738 34.5621C11.873 34.5621 11.6064 34.6191 11.374 34.733C11.1416 34.8424 10.9456 35.0178 10.7861 35.2594C10.6312 35.5009 10.5127 35.8176 10.4307 36.2096C10.3486 36.6015 10.3076 37.0777 10.3076 37.6383V39.5728C10.3076 40.0195 10.3327 40.4137 10.3828 40.7555C10.4375 41.0973 10.5173 41.3935 10.6221 41.6441C10.7269 41.8902 10.8545 42.093 11.0049 42.2525C11.1553 42.412 11.3285 42.5305 11.5244 42.608C11.7249 42.6809 11.946 42.7174 12.1875 42.7174C12.4974 42.7174 12.7686 42.6581 13.001 42.5396C13.2334 42.4212 13.4271 42.2366 13.582 41.9859C13.7415 41.7307 13.86 41.4049 13.9375 41.0084C14.015 40.6074 14.0537 40.1288 14.0537 39.5728ZM23.2002 37.8502V39.3678C23.2002 40.1835 23.1273 40.8717 22.9814 41.4322C22.8356 41.9928 22.626 42.4439 22.3525 42.7857C22.0791 43.1275 21.7487 43.3759 21.3613 43.5309C20.9785 43.6812 20.5456 43.7564 20.0625 43.7564C19.6797 43.7564 19.3265 43.7086 19.0029 43.6129C18.6794 43.5172 18.3877 43.3645 18.1279 43.1549C17.8727 42.9407 17.654 42.6627 17.4717 42.3209C17.2894 41.9791 17.1504 41.5644 17.0547 41.0768C16.959 40.5891 16.9111 40.0195 16.9111 39.3678V37.8502C16.9111 37.0344 16.984 36.3508 17.1299 35.7994C17.2803 35.248 17.4922 34.8059 17.7656 34.4732C18.0391 34.136 18.3672 33.8945 18.75 33.7486C19.1374 33.6028 19.5703 33.5299 20.0488 33.5299C20.4362 33.5299 20.7917 33.5777 21.1152 33.6734C21.4434 33.7646 21.735 33.9127 21.9902 34.1178C22.2454 34.3183 22.4619 34.5872 22.6396 34.9244C22.8219 35.2571 22.9609 35.665 23.0566 36.148C23.1523 36.6311 23.2002 37.1985 23.2002 37.8502ZM21.9287 39.5728V37.6383C21.9287 37.1917 21.9014 36.7997 21.8467 36.4625C21.7965 36.1207 21.7214 35.829 21.6211 35.5875C21.5208 35.346 21.3932 35.15 21.2383 34.9996C21.0879 34.8492 20.9124 34.7398 20.7119 34.6715C20.516 34.5986 20.2949 34.5621 20.0488 34.5621C19.748 34.5621 19.4814 34.6191 19.249 34.733C19.0166 34.8424 18.8206 35.0178 18.6611 35.2594C18.5062 35.5009 18.3877 35.8176 18.3057 36.2096C18.2236 36.6015 18.1826 37.0777 18.1826 37.6383V39.5728C18.1826 40.0195 18.2077 40.4137 18.2578 40.7555C18.3125 41.0973 18.3923 41.3935 18.4971 41.6441C18.6019 41.8902 18.7295 42.093 18.8799 42.2525C19.0303 42.412 19.2035 42.5305 19.3994 42.608C19.5999 42.6809 19.821 42.7174 20.0625 42.7174C20.3724 42.7174 20.6436 42.6581 20.876 42.5396C21.1084 42.4212 21.3021 42.2366 21.457 41.9859C21.6165 41.7307 21.735 41.4049 21.8125 41.0084C21.89 40.6074 21.9287 40.1288 21.9287 39.5728Z"
        fill="white"
    />
    <path
        d="M7.72363 71.2004V72.2394H1.20898V71.3303L4.46973 67.7004C4.87077 67.2538 5.18066 66.8755 5.39941 66.5656C5.62272 66.2512 5.77767 65.9709 5.86426 65.7248C5.9554 65.4741 6.00098 65.2189 6.00098 64.9592C6.00098 64.631 5.93262 64.3348 5.7959 64.0705C5.66374 63.8016 5.46777 63.5874 5.20801 63.4279C4.94824 63.2684 4.63379 63.1887 4.26465 63.1887C3.82259 63.1887 3.45345 63.2752 3.15723 63.4484C2.86556 63.617 2.64681 63.854 2.50098 64.1594C2.35514 64.4647 2.28223 64.8156 2.28223 65.2121H1.01758C1.01758 64.6515 1.14062 64.1389 1.38672 63.674C1.63281 63.2092 1.9974 62.84 2.48047 62.5666C2.96354 62.2886 3.55827 62.1496 4.26465 62.1496C4.89355 62.1496 5.43132 62.2612 5.87793 62.4846C6.32454 62.7033 6.66634 63.0132 6.90332 63.4142C7.14486 63.8107 7.26562 64.2756 7.26562 64.8088C7.26562 65.1004 7.21549 65.3967 7.11523 65.6974C7.01953 65.9937 6.88509 66.2899 6.71191 66.5861C6.54329 66.8823 6.34505 67.174 6.11719 67.4611C5.89388 67.7482 5.65462 68.0308 5.39941 68.3088L2.7334 71.2004H7.72363ZM15.3252 66.4699V67.9875C15.3252 68.8032 15.2523 69.4914 15.1064 70.0519C14.9606 70.6125 14.751 71.0637 14.4775 71.4055C14.2041 71.7472 13.8737 71.9956 13.4863 72.1506C13.1035 72.301 12.6706 72.3762 12.1875 72.3762C11.8047 72.3762 11.4515 72.3283 11.1279 72.2326C10.8044 72.1369 10.5127 71.9842 10.2529 71.7746C9.99772 71.5604 9.77897 71.2824 9.59668 70.9406C9.41439 70.5988 9.27539 70.1841 9.17969 69.6965C9.08398 69.2088 9.03613 68.6392 9.03613 67.9875V66.4699C9.03613 65.6542 9.10905 64.9706 9.25488 64.4191C9.40527 63.8677 9.61719 63.4256 9.89062 63.093C10.1641 62.7557 10.4922 62.5142 10.875 62.3683C11.2624 62.2225 11.6953 62.1496 12.1738 62.1496C12.5612 62.1496 12.9167 62.1974 13.2402 62.2931C13.5684 62.3843 13.86 62.5324 14.1152 62.7375C14.3704 62.938 14.5869 63.2069 14.7646 63.5441C14.9469 63.8768 15.0859 64.2847 15.1816 64.7678C15.2773 65.2508 15.3252 65.8182 15.3252 66.4699ZM14.0537 68.1926V66.258C14.0537 65.8114 14.0264 65.4195 13.9717 65.0822C13.9215 64.7404 13.8464 64.4487 13.7461 64.2072C13.6458 63.9657 13.5182 63.7697 13.3633 63.6193C13.2129 63.4689 13.0374 63.3596 12.8369 63.2912C12.641 63.2183 12.4199 63.1818 12.1738 63.1818C11.873 63.1818 11.6064 63.2388 11.374 63.3527C11.1416 63.4621 10.9456 63.6375 10.7861 63.8791C10.6312 64.1206 10.5127 64.4374 10.4307 64.8293C10.3486 65.2212 10.3076 65.6974 10.3076 66.258V68.1926C10.3076 68.6392 10.3327 69.0334 10.3828 69.3752C10.4375 69.717 10.5173 70.0132 10.6221 70.2639C10.7269 70.5099 10.8545 70.7127 11.0049 70.8722C11.1553 71.0318 11.3285 71.1502 11.5244 71.2277C11.7249 71.3006 11.946 71.3371 12.1875 71.3371C12.4974 71.3371 12.7686 71.2778 13.001 71.1594C13.2334 71.0409 13.4271 70.8563 13.582 70.6056C13.7415 70.3504 13.86 70.0246 13.9375 69.6281C14.015 69.2271 14.0537 68.7486 14.0537 68.1926ZM23.2002 66.4699V67.9875C23.2002 68.8032 23.1273 69.4914 22.9814 70.0519C22.8356 70.6125 22.626 71.0637 22.3525 71.4055C22.0791 71.7472 21.7487 71.9956 21.3613 72.1506C20.9785 72.301 20.5456 72.3762 20.0625 72.3762C19.6797 72.3762 19.3265 72.3283 19.0029 72.2326C18.6794 72.1369 18.3877 71.9842 18.1279 71.7746C17.8727 71.5604 17.654 71.2824 17.4717 70.9406C17.2894 70.5988 17.1504 70.1841 17.0547 69.6965C16.959 69.2088 16.9111 68.6392 16.9111 67.9875V66.4699C16.9111 65.6542 16.984 64.9706 17.1299 64.4191C17.2803 63.8677 17.4922 63.4256 17.7656 63.093C18.0391 62.7557 18.3672 62.5142 18.75 62.3683C19.1374 62.2225 19.5703 62.1496 20.0488 62.1496C20.4362 62.1496 20.7917 62.1974 21.1152 62.2931C21.4434 62.3843 21.735 62.5324 21.9902 62.7375C22.2454 62.938 22.4619 63.2069 22.6396 63.5441C22.8219 63.8768 22.9609 64.2847 23.0566 64.7678C23.1523 65.2508 23.2002 65.8182 23.2002 66.4699ZM21.9287 68.1926V66.258C21.9287 65.8114 21.9014 65.4195 21.8467 65.0822C21.7965 64.7404 21.7214 64.4487 21.6211 64.2072C21.5208 63.9657 21.3932 63.7697 21.2383 63.6193C21.0879 63.4689 20.9124 63.3596 20.7119 63.2912C20.516 63.2183 20.2949 63.1818 20.0488 63.1818C19.748 63.1818 19.4814 63.2388 19.249 63.3527C19.0166 63.4621 18.8206 63.6375 18.6611 63.8791C18.5062 64.1206 18.3877 64.4374 18.3057 64.8293C18.2236 65.2212 18.1826 65.6974 18.1826 66.258V68.1926C18.1826 68.6392 18.2077 69.0334 18.2578 69.3752C18.3125 69.717 18.3923 70.0132 18.4971 70.2639C18.6019 70.5099 18.7295 70.7127 18.8799 70.8722C19.0303 71.0318 19.2035 71.1502 19.3994 71.2277C19.5999 71.3006 19.821 71.3371 20.0625 71.3371C20.3724 71.3371 20.6436 71.2778 20.876 71.1594C21.1084 71.0409 21.3021 70.8563 21.457 70.6056C21.6165 70.3504 21.735 70.0246 21.8125 69.6281C21.89 69.2271 21.9287 68.7486 21.9287 68.1926Z"
        fill="white"
    />
    <path
        d="M23.2002 95.0896V96.6072C23.2002 97.423 23.1273 98.1111 22.9814 98.6717C22.8356 99.2322 22.626 99.6834 22.3525 100.025C22.0791 100.367 21.7487 100.615 21.3613 100.77C20.9785 100.921 20.5456 100.996 20.0625 100.996C19.6797 100.996 19.3265 100.948 19.0029 100.852C18.6794 100.757 18.3877 100.604 18.1279 100.394C17.8727 100.18 17.654 99.9021 17.4717 99.5603C17.2894 99.2185 17.1504 98.8038 17.0547 98.3162C16.959 97.8286 16.9111 97.2589 16.9111 96.6072V95.0896C16.9111 94.2739 16.984 93.5903 17.1299 93.0388C17.2803 92.4874 17.4922 92.0454 17.7656 91.7127C18.0391 91.3754 18.3672 91.1339 18.75 90.9881C19.1374 90.8422 19.5703 90.7693 20.0488 90.7693C20.4362 90.7693 20.7917 90.8172 21.1152 90.9129C21.4434 91.004 21.735 91.1521 21.9902 91.3572C22.2454 91.5577 22.4619 91.8266 22.6396 92.1638C22.8219 92.4965 22.9609 92.9044 23.0566 93.3875C23.1523 93.8705 23.2002 94.4379 23.2002 95.0896ZM21.9287 96.8123V94.8777C21.9287 94.4311 21.9014 94.0392 21.8467 93.7019C21.7965 93.3601 21.7214 93.0685 21.6211 92.8269C21.5208 92.5854 21.3932 92.3894 21.2383 92.239C21.0879 92.0886 20.9124 91.9793 20.7119 91.9109C20.516 91.838 20.2949 91.8015 20.0488 91.8015C19.748 91.8015 19.4814 91.8585 19.249 91.9724C19.0166 92.0818 18.8206 92.2573 18.6611 92.4988C18.5062 92.7403 18.3877 93.0571 18.3057 93.449C18.2236 93.8409 18.1826 94.3172 18.1826 94.8777V96.8123C18.1826 97.2589 18.2077 97.6531 18.2578 97.9949C18.3125 98.3367 18.3923 98.6329 18.4971 98.8836C18.6019 99.1297 18.7295 99.3325 18.8799 99.492C19.0303 99.6515 19.2035 99.77 19.3994 99.8474C19.5999 99.9204 19.821 99.9568 20.0625 99.9568C20.3724 99.9568 20.6436 99.8976 20.876 99.7791C21.1084 99.6606 21.3021 99.476 21.457 99.2254C21.6165 98.9702 21.735 98.6443 21.8125 98.2478C21.89 97.8468 21.9287 97.3683 21.9287 96.8123Z"
        fill="white"
    />
    <path
        d="M28.9707 114.147L25.6758 123.218H24.3291L28.123 113.265H28.9912L28.9707 114.147ZM31.7324 123.218L28.4307 114.147L28.4102 113.265H29.2783L33.0859 123.218H31.7324ZM31.5615 119.534V120.614H25.9697V119.534H31.5615ZM35.4922 117.244V126.062H34.2207V115.822H35.3828L35.4922 117.244ZM40.4756 119.459V119.602C40.4756 120.14 40.4118 120.639 40.2842 121.099C40.1566 121.555 39.9697 121.951 39.7236 122.289C39.4821 122.626 39.1836 122.888 38.8281 123.075C38.4727 123.262 38.0648 123.355 37.6045 123.355C37.1351 123.355 36.7204 123.278 36.3604 123.123C36.0003 122.968 35.695 122.742 35.4443 122.446C35.1937 122.15 34.9932 121.794 34.8428 121.379C34.6969 120.965 34.5967 120.498 34.542 119.978V119.212C34.5967 118.666 34.6992 118.176 34.8496 117.743C35 117.31 35.1982 116.941 35.4443 116.635C35.695 116.325 35.998 116.091 36.3535 115.931C36.709 115.767 37.1191 115.685 37.584 115.685C38.0488 115.685 38.4613 115.776 38.8213 115.959C39.1813 116.136 39.4844 116.391 39.7305 116.724C39.9766 117.057 40.1611 117.456 40.2842 117.92C40.4118 118.381 40.4756 118.893 40.4756 119.459ZM39.2041 119.602V119.459C39.2041 119.089 39.1654 118.743 39.0879 118.419C39.0104 118.091 38.8896 117.804 38.7256 117.558C38.5661 117.308 38.361 117.112 38.1104 116.97C37.8597 116.824 37.5612 116.752 37.2148 116.752C36.8958 116.752 36.6178 116.806 36.3809 116.916C36.1484 117.025 35.9502 117.173 35.7861 117.36C35.6221 117.542 35.4876 117.752 35.3828 117.989C35.2826 118.221 35.2074 118.463 35.1572 118.713V120.484C35.2484 120.803 35.376 121.104 35.54 121.386C35.7041 121.664 35.9229 121.89 36.1963 122.063C36.4697 122.232 36.8138 122.316 37.2285 122.316C37.5703 122.316 37.8643 122.245 38.1104 122.104C38.361 121.958 38.5661 121.76 38.7256 121.509C38.8896 121.259 39.0104 120.972 39.0879 120.648C39.1654 120.32 39.2041 119.971 39.2041 119.602ZM43.3535 116.984V123.218H42.0889V115.822H43.3193L43.3535 116.984ZM45.6641 115.781L45.6572 116.957C45.5524 116.934 45.4521 116.92 45.3564 116.916C45.2653 116.906 45.1605 116.902 45.042 116.902C44.7503 116.902 44.4928 116.947 44.2695 117.039C44.0462 117.13 43.8571 117.257 43.7021 117.421C43.5472 117.585 43.4242 117.781 43.333 118.009C43.2464 118.233 43.1895 118.479 43.1621 118.748L42.8066 118.953C42.8066 118.506 42.8499 118.087 42.9365 117.695C43.0277 117.303 43.1667 116.957 43.3535 116.656C43.5404 116.35 43.7773 116.113 44.0645 115.945C44.3561 115.772 44.7025 115.685 45.1035 115.685C45.1947 115.685 45.2995 115.696 45.418 115.719C45.5365 115.738 45.6185 115.758 45.6641 115.781Z"
        fill="white"
    />
    <path
        d="M62.8926 113.265H64.1709L67.4316 121.379L70.6855 113.265H71.9707L67.9238 123.218H66.9258L62.8926 113.265ZM62.4756 113.265H63.6035L63.7881 119.335V123.218H62.4756V113.265ZM71.2529 113.265H72.3809V123.218H71.0684V119.335L71.2529 113.265ZM78.8682 121.954V118.146C78.8682 117.854 78.8089 117.601 78.6904 117.387C78.5765 117.169 78.4033 117 78.1709 116.881C77.9385 116.763 77.6514 116.704 77.3096 116.704C76.9906 116.704 76.7103 116.758 76.4688 116.868C76.2318 116.977 76.0449 117.121 75.9082 117.298C75.776 117.476 75.71 117.668 75.71 117.873H74.4453C74.4453 117.608 74.5137 117.346 74.6504 117.086C74.7871 116.827 74.9831 116.592 75.2383 116.382C75.498 116.168 75.8079 116 76.168 115.877C76.5326 115.749 76.9382 115.685 77.3848 115.685C77.9225 115.685 78.3965 115.776 78.8066 115.959C79.2214 116.141 79.5449 116.417 79.7773 116.786C80.0143 117.15 80.1328 117.608 80.1328 118.16V121.605C80.1328 121.851 80.1533 122.113 80.1943 122.391C80.2399 122.669 80.306 122.908 80.3926 123.109V123.218H79.0732C79.0094 123.072 78.9593 122.879 78.9229 122.637C78.8864 122.391 78.8682 122.163 78.8682 121.954ZM79.0869 118.734L79.1006 119.623H77.8223C77.4622 119.623 77.141 119.652 76.8584 119.711C76.5758 119.766 76.3389 119.85 76.1475 119.964C75.9561 120.078 75.8102 120.222 75.71 120.395C75.6097 120.564 75.5596 120.762 75.5596 120.99C75.5596 121.222 75.612 121.434 75.7168 121.626C75.8216 121.817 75.9788 121.97 76.1885 122.084C76.4027 122.193 76.6647 122.248 76.9746 122.248C77.362 122.248 77.7038 122.166 78 122.002C78.2962 121.837 78.5309 121.637 78.7041 121.4C78.8818 121.163 78.9775 120.933 78.9912 120.71L79.5312 121.318C79.4993 121.509 79.4128 121.721 79.2715 121.954C79.1302 122.186 78.9411 122.409 78.7041 122.624C78.4717 122.833 78.1937 123.009 77.8701 123.15C77.5511 123.287 77.1911 123.355 76.79 123.355C76.2887 123.355 75.849 123.257 75.4707 123.061C75.097 122.865 74.8053 122.603 74.5957 122.275C74.3906 121.942 74.2881 121.571 74.2881 121.161C74.2881 120.764 74.3656 120.416 74.5205 120.115C74.6755 119.809 74.8988 119.557 75.1904 119.356C75.4821 119.151 75.833 118.996 76.2432 118.891C76.6533 118.786 77.1113 118.734 77.6172 118.734H79.0869ZM84.0908 122.453L86.1484 115.822H87.502L84.5352 124.36C84.4668 124.542 84.3757 124.738 84.2617 124.948C84.1523 125.162 84.0111 125.365 83.8379 125.556C83.6647 125.748 83.4551 125.903 83.209 126.021C82.9674 126.144 82.6781 126.206 82.3408 126.206C82.2406 126.206 82.113 126.192 81.958 126.165C81.8031 126.137 81.6937 126.114 81.6299 126.096L81.623 125.071C81.6595 125.075 81.7165 125.08 81.7939 125.085C81.876 125.094 81.9329 125.098 81.9648 125.098C82.252 125.098 82.4958 125.059 82.6963 124.982C82.8968 124.909 83.0654 124.784 83.2021 124.606C83.3434 124.433 83.4642 124.194 83.5645 123.888L84.0908 122.453ZM82.5801 115.822L84.501 121.564L84.8291 122.897L83.9199 123.362L81.1992 115.822H82.5801Z"
        fill="white"
    />
    <path
        d="M108.738 120.313V113.265H110.051V120.313C110.051 120.969 109.916 121.523 109.647 121.974C109.379 122.425 109.007 122.769 108.533 123.006C108.064 123.239 107.524 123.355 106.913 123.355C106.302 123.355 105.76 123.25 105.286 123.041C104.812 122.831 104.441 122.512 104.172 122.084C103.903 121.655 103.769 121.115 103.769 120.463H105.088C105.088 120.883 105.165 121.227 105.32 121.496C105.475 121.765 105.689 121.963 105.963 122.09C106.241 122.218 106.558 122.282 106.913 122.282C107.259 122.282 107.569 122.209 107.843 122.063C108.121 121.913 108.34 121.692 108.499 121.4C108.659 121.104 108.738 120.741 108.738 120.313ZM116.62 121.509V115.822H117.892V123.218H116.682L116.62 121.509ZM116.859 119.951L117.386 119.937C117.386 120.429 117.333 120.885 117.229 121.304C117.128 121.719 116.964 122.079 116.736 122.384C116.508 122.69 116.21 122.929 115.841 123.102C115.472 123.271 115.023 123.355 114.494 123.355C114.134 123.355 113.804 123.303 113.503 123.198C113.207 123.093 112.951 122.931 112.737 122.712C112.523 122.494 112.357 122.209 112.238 121.858C112.124 121.507 112.067 121.085 112.067 120.593V115.822H113.332V120.607C113.332 120.94 113.368 121.215 113.441 121.434C113.519 121.648 113.621 121.819 113.749 121.947C113.881 122.07 114.027 122.156 114.187 122.207C114.351 122.257 114.519 122.282 114.692 122.282C115.23 122.282 115.656 122.179 115.971 121.974C116.285 121.765 116.511 121.484 116.647 121.133C116.789 120.778 116.859 120.384 116.859 119.951ZM121.084 117.401V123.218H119.819V115.822H121.016L121.084 117.401ZM120.783 119.24L120.257 119.219C120.261 118.713 120.337 118.246 120.482 117.818C120.628 117.385 120.833 117.009 121.098 116.69C121.362 116.371 121.676 116.125 122.041 115.952C122.41 115.774 122.818 115.685 123.265 115.685C123.629 115.685 123.957 115.735 124.249 115.835C124.541 115.931 124.789 116.086 124.994 116.3C125.204 116.515 125.363 116.793 125.473 117.134C125.582 117.472 125.637 117.884 125.637 118.372V123.218H124.365V118.358C124.365 117.971 124.308 117.661 124.194 117.428C124.08 117.191 123.914 117.02 123.695 116.916C123.477 116.806 123.208 116.752 122.889 116.752C122.574 116.752 122.287 116.818 122.027 116.95C121.772 117.082 121.551 117.264 121.364 117.497C121.182 117.729 121.038 117.996 120.934 118.296C120.833 118.593 120.783 118.907 120.783 119.24Z"
        fill="white"
    />
    <path
        d="M147.405 120.313V113.265H148.718V120.313C148.718 120.969 148.583 121.523 148.314 121.974C148.046 122.425 147.674 122.769 147.2 123.006C146.731 123.239 146.191 123.355 145.58 123.355C144.969 123.355 144.427 123.25 143.953 123.041C143.479 122.831 143.108 122.512 142.839 122.084C142.57 121.655 142.436 121.115 142.436 120.463H143.755C143.755 120.883 143.832 121.227 143.987 121.496C144.142 121.765 144.356 121.963 144.63 122.09C144.908 122.218 145.225 122.282 145.58 122.282C145.926 122.282 146.236 122.209 146.51 122.063C146.788 121.913 147.007 121.692 147.166 121.4C147.326 121.104 147.405 120.741 147.405 120.313ZM155.287 121.509V115.822H156.559V123.218H155.349L155.287 121.509ZM155.526 119.951L156.053 119.937C156.053 120.429 156 120.885 155.896 121.304C155.795 121.719 155.631 122.079 155.403 122.384C155.175 122.69 154.877 122.929 154.508 123.102C154.139 123.271 153.69 123.355 153.161 123.355C152.801 123.355 152.471 123.303 152.17 123.198C151.874 123.093 151.618 122.931 151.404 122.712C151.19 122.494 151.024 122.209 150.905 121.858C150.791 121.507 150.734 121.085 150.734 120.593V115.822H151.999V120.607C151.999 120.94 152.035 121.215 152.108 121.434C152.186 121.648 152.288 121.819 152.416 121.947C152.548 122.07 152.694 122.156 152.854 122.207C153.018 122.257 153.186 122.282 153.359 122.282C153.897 122.282 154.323 122.179 154.638 121.974C154.952 121.765 155.178 121.484 155.314 121.133C155.456 120.778 155.526 120.384 155.526 119.951ZM159.86 112.718V123.218H158.589V112.718H159.86Z"
        fill="white"
    />
    <path
        d="M181.021 114.147L177.727 123.218H176.38L180.174 113.265H181.042L181.021 114.147ZM183.783 123.218L180.481 114.147L180.461 113.265H181.329L185.137 123.218H183.783ZM183.612 119.534V120.614H178.021V119.534H183.612ZM190.722 121.509V115.822H191.993V123.218H190.783L190.722 121.509ZM190.961 119.951L191.487 119.937C191.487 120.429 191.435 120.885 191.33 121.304C191.23 121.719 191.066 122.079 190.838 122.384C190.61 122.69 190.312 122.929 189.942 123.102C189.573 123.271 189.124 123.355 188.596 123.355C188.236 123.355 187.905 123.303 187.604 123.198C187.308 123.093 187.053 122.931 186.839 122.712C186.625 122.494 186.458 122.209 186.34 121.858C186.226 121.507 186.169 121.085 186.169 120.593V115.822H187.434V120.607C187.434 120.94 187.47 121.215 187.543 121.434C187.62 121.648 187.723 121.819 187.851 121.947C187.983 122.07 188.129 122.156 188.288 122.207C188.452 122.257 188.621 122.282 188.794 122.282C189.332 122.282 189.758 122.179 190.072 121.974C190.387 121.765 190.612 121.484 190.749 121.133C190.89 120.778 190.961 120.384 190.961 119.951ZM198.713 115.822H199.861V123.061C199.861 123.713 199.729 124.269 199.465 124.729C199.201 125.189 198.831 125.538 198.357 125.775C197.888 126.016 197.346 126.137 196.73 126.137C196.475 126.137 196.174 126.096 195.828 126.014C195.486 125.937 195.149 125.802 194.816 125.611C194.488 125.424 194.213 125.171 193.989 124.852L194.652 124.1C194.962 124.474 195.286 124.734 195.623 124.879C195.965 125.025 196.302 125.098 196.635 125.098C197.036 125.098 197.382 125.023 197.674 124.873C197.965 124.722 198.191 124.499 198.351 124.203C198.515 123.911 198.597 123.551 198.597 123.123V117.449L198.713 115.822ZM193.62 119.602V119.459C193.62 118.893 193.686 118.381 193.818 117.92C193.955 117.456 194.149 117.057 194.399 116.724C194.655 116.391 194.962 116.136 195.322 115.959C195.682 115.776 196.088 115.685 196.539 115.685C197.004 115.685 197.41 115.767 197.756 115.931C198.107 116.091 198.403 116.325 198.645 116.635C198.891 116.941 199.084 117.31 199.226 117.743C199.367 118.176 199.465 118.666 199.52 119.212V119.841C199.469 120.384 199.371 120.871 199.226 121.304C199.084 121.737 198.891 122.106 198.645 122.412C198.403 122.717 198.107 122.952 197.756 123.116C197.405 123.275 196.995 123.355 196.525 123.355C196.083 123.355 195.682 123.262 195.322 123.075C194.967 122.888 194.661 122.626 194.406 122.289C194.151 121.951 193.955 121.555 193.818 121.099C193.686 120.639 193.62 120.14 193.62 119.602ZM194.885 119.459V119.602C194.885 119.971 194.921 120.318 194.994 120.641C195.072 120.965 195.188 121.25 195.343 121.496C195.502 121.742 195.705 121.935 195.951 122.077C196.197 122.213 196.491 122.282 196.833 122.282C197.252 122.282 197.599 122.193 197.872 122.015C198.146 121.837 198.362 121.603 198.521 121.311C198.686 121.019 198.813 120.703 198.904 120.361V118.713C198.854 118.463 198.777 118.221 198.672 117.989C198.572 117.752 198.439 117.542 198.275 117.36C198.116 117.173 197.918 117.025 197.681 116.916C197.444 116.806 197.166 116.752 196.847 116.752C196.5 116.752 196.202 116.824 195.951 116.97C195.705 117.112 195.502 117.308 195.343 117.558C195.188 117.804 195.072 118.091 194.994 118.419C194.921 118.743 194.885 119.089 194.885 119.459Z"
        fill="white"
    />
    <path
        d="M222.661 120.703C222.661 120.47 222.625 120.265 222.552 120.087C222.483 119.905 222.36 119.741 222.183 119.595C222.009 119.449 221.768 119.31 221.458 119.178C221.153 119.046 220.765 118.912 220.296 118.775C219.804 118.629 219.359 118.467 218.963 118.29C218.566 118.107 218.227 117.9 217.944 117.668C217.662 117.435 217.445 117.169 217.295 116.868C217.145 116.567 217.069 116.223 217.069 115.835C217.069 115.448 217.149 115.09 217.309 114.762C217.468 114.434 217.696 114.149 217.992 113.908C218.293 113.662 218.651 113.47 219.065 113.334C219.48 113.197 219.943 113.128 220.453 113.128C221.201 113.128 221.834 113.272 222.354 113.559C222.878 113.842 223.276 114.213 223.55 114.673C223.823 115.129 223.96 115.617 223.96 116.136H222.647C222.647 115.763 222.568 115.432 222.408 115.145C222.249 114.853 222.007 114.626 221.684 114.461C221.36 114.293 220.95 114.209 220.453 114.209C219.984 114.209 219.596 114.279 219.291 114.42C218.986 114.562 218.758 114.753 218.607 114.995C218.462 115.236 218.389 115.512 218.389 115.822C218.389 116.031 218.432 116.223 218.519 116.396C218.61 116.565 218.749 116.722 218.936 116.868C219.127 117.014 219.368 117.148 219.66 117.271C219.956 117.394 220.31 117.513 220.72 117.627C221.285 117.786 221.772 117.964 222.183 118.16C222.593 118.356 222.93 118.577 223.194 118.823C223.463 119.064 223.661 119.34 223.789 119.65C223.921 119.955 223.987 120.302 223.987 120.689C223.987 121.095 223.905 121.461 223.741 121.79C223.577 122.118 223.342 122.398 223.037 122.63C222.732 122.863 222.365 123.043 221.937 123.17C221.513 123.294 221.039 123.355 220.515 123.355C220.054 123.355 219.601 123.291 219.154 123.164C218.712 123.036 218.309 122.845 217.944 122.589C217.584 122.334 217.295 122.02 217.076 121.646C216.862 121.268 216.755 120.83 216.755 120.334H218.067C218.067 120.675 218.133 120.969 218.266 121.215C218.398 121.457 218.578 121.657 218.806 121.817C219.038 121.976 219.3 122.095 219.592 122.172C219.888 122.245 220.196 122.282 220.515 122.282C220.975 122.282 221.365 122.218 221.684 122.09C222.003 121.963 222.244 121.78 222.408 121.544C222.577 121.307 222.661 121.026 222.661 120.703ZM228.547 123.355C228.032 123.355 227.565 123.268 227.146 123.095C226.731 122.918 226.373 122.669 226.072 122.35C225.776 122.031 225.548 121.653 225.389 121.215C225.229 120.778 225.149 120.299 225.149 119.78V119.493C225.149 118.891 225.238 118.356 225.416 117.886C225.594 117.412 225.835 117.011 226.141 116.683C226.446 116.355 226.792 116.107 227.18 115.938C227.567 115.769 227.968 115.685 228.383 115.685C228.911 115.685 229.367 115.776 229.75 115.959C230.137 116.141 230.454 116.396 230.7 116.724C230.946 117.048 231.129 117.431 231.247 117.873C231.366 118.31 231.425 118.789 231.425 119.308V119.876H225.901V118.843H230.16V118.748C230.142 118.419 230.074 118.1 229.955 117.791C229.841 117.481 229.659 117.225 229.408 117.025C229.158 116.824 228.816 116.724 228.383 116.724C228.096 116.724 227.831 116.786 227.59 116.909C227.348 117.027 227.141 117.205 226.968 117.442C226.795 117.679 226.66 117.968 226.564 118.31C226.469 118.652 226.421 119.046 226.421 119.493V119.78C226.421 120.131 226.469 120.461 226.564 120.771C226.665 121.076 226.808 121.345 226.995 121.578C227.187 121.81 227.417 121.992 227.686 122.125C227.959 122.257 228.269 122.323 228.615 122.323C229.062 122.323 229.44 122.232 229.75 122.049C230.06 121.867 230.331 121.623 230.563 121.318L231.329 121.926C231.17 122.168 230.967 122.398 230.721 122.617C230.475 122.835 230.172 123.013 229.812 123.15C229.456 123.287 229.035 123.355 228.547 123.355ZM234.166 117.244V126.062H232.895V115.822H234.057L234.166 117.244ZM239.149 119.459V119.602C239.149 120.14 239.086 120.639 238.958 121.099C238.83 121.555 238.644 121.951 238.397 122.289C238.156 122.626 237.857 122.888 237.502 123.075C237.146 123.262 236.739 123.355 236.278 123.355C235.809 123.355 235.394 123.278 235.034 123.123C234.674 122.968 234.369 122.742 234.118 122.446C233.868 122.15 233.667 121.794 233.517 121.379C233.371 120.965 233.271 120.498 233.216 119.978V119.212C233.271 118.666 233.373 118.176 233.523 117.743C233.674 117.31 233.872 116.941 234.118 116.635C234.369 116.325 234.672 116.091 235.027 115.931C235.383 115.767 235.793 115.685 236.258 115.685C236.723 115.685 237.135 115.776 237.495 115.959C237.855 116.136 238.158 116.391 238.404 116.724C238.65 117.057 238.835 117.456 238.958 117.92C239.086 118.381 239.149 118.893 239.149 119.459ZM237.878 119.602V119.459C237.878 119.089 237.839 118.743 237.762 118.419C237.684 118.091 237.563 117.804 237.399 117.558C237.24 117.308 237.035 117.112 236.784 116.97C236.534 116.824 236.235 116.752 235.889 116.752C235.57 116.752 235.292 116.806 235.055 116.916C234.822 117.025 234.624 117.173 234.46 117.36C234.296 117.542 234.161 117.752 234.057 117.989C233.956 118.221 233.881 118.463 233.831 118.713V120.484C233.922 120.803 234.05 121.104 234.214 121.386C234.378 121.664 234.597 121.89 234.87 122.063C235.144 122.232 235.488 122.316 235.902 122.316C236.244 122.316 236.538 122.245 236.784 122.104C237.035 121.958 237.24 121.76 237.399 121.509C237.563 121.259 237.684 120.972 237.762 120.648C237.839 120.32 237.878 119.971 237.878 119.602Z"
        fill="white"
    />
    <path
        d="M264.045 117.927V118.556C264.045 119.304 263.951 119.974 263.765 120.566C263.578 121.158 263.309 121.662 262.958 122.077C262.607 122.491 262.186 122.808 261.693 123.027C261.206 123.246 260.659 123.355 260.053 123.355C259.465 123.355 258.925 123.246 258.433 123.027C257.945 122.808 257.521 122.491 257.161 122.077C256.806 121.662 256.53 121.158 256.334 120.566C256.138 119.974 256.04 119.304 256.04 118.556V117.927C256.04 117.18 256.136 116.512 256.327 115.924C256.523 115.332 256.799 114.828 257.154 114.414C257.51 113.994 257.931 113.675 258.419 113.457C258.911 113.238 259.451 113.128 260.039 113.128C260.645 113.128 261.192 113.238 261.68 113.457C262.172 113.675 262.593 113.994 262.944 114.414C263.3 114.828 263.571 115.332 263.758 115.924C263.949 116.512 264.045 117.18 264.045 117.927ZM262.739 118.556V117.914C262.739 117.321 262.678 116.797 262.555 116.341C262.436 115.886 262.261 115.503 262.028 115.193C261.796 114.883 261.511 114.648 261.174 114.489C260.841 114.329 260.463 114.25 260.039 114.25C259.629 114.25 259.257 114.329 258.925 114.489C258.597 114.648 258.314 114.883 258.077 115.193C257.845 115.503 257.665 115.886 257.537 116.341C257.41 116.797 257.346 117.321 257.346 117.914V118.556C257.346 119.153 257.41 119.682 257.537 120.142C257.665 120.598 257.847 120.983 258.084 121.297C258.326 121.607 258.61 121.842 258.938 122.002C259.271 122.161 259.643 122.241 260.053 122.241C260.481 122.241 260.862 122.161 261.194 122.002C261.527 121.842 261.807 121.607 262.035 121.297C262.268 120.983 262.443 120.598 262.562 120.142C262.68 119.682 262.739 119.153 262.739 118.556ZM268.789 122.316C269.09 122.316 269.368 122.254 269.623 122.131C269.878 122.008 270.088 121.84 270.252 121.626C270.416 121.407 270.509 121.158 270.532 120.88H271.735C271.713 121.318 271.564 121.726 271.291 122.104C271.022 122.478 270.669 122.781 270.231 123.013C269.794 123.241 269.313 123.355 268.789 123.355C268.233 123.355 267.748 123.257 267.333 123.061C266.923 122.865 266.581 122.596 266.308 122.254C266.039 121.913 265.836 121.521 265.699 121.079C265.567 120.632 265.501 120.16 265.501 119.664V119.377C265.501 118.88 265.567 118.41 265.699 117.968C265.836 117.522 266.039 117.127 266.308 116.786C266.581 116.444 266.923 116.175 267.333 115.979C267.748 115.783 268.233 115.685 268.789 115.685C269.368 115.685 269.874 115.804 270.307 116.041C270.74 116.273 271.079 116.592 271.325 116.998C271.576 117.399 271.713 117.854 271.735 118.365H270.532C270.509 118.059 270.423 117.784 270.272 117.538C270.127 117.292 269.926 117.096 269.671 116.95C269.42 116.799 269.126 116.724 268.789 116.724C268.402 116.724 268.076 116.802 267.812 116.957C267.552 117.107 267.344 117.312 267.189 117.572C267.039 117.827 266.93 118.112 266.861 118.426C266.798 118.736 266.766 119.053 266.766 119.377V119.664C266.766 119.987 266.798 120.306 266.861 120.621C266.925 120.935 267.032 121.22 267.183 121.475C267.338 121.73 267.545 121.935 267.805 122.09C268.069 122.241 268.397 122.316 268.789 122.316ZM276.254 115.822V116.793H272.255V115.822H276.254ZM273.608 114.024H274.873V121.386C274.873 121.637 274.912 121.826 274.989 121.954C275.067 122.081 275.167 122.166 275.29 122.207C275.413 122.248 275.545 122.268 275.687 122.268C275.791 122.268 275.901 122.259 276.015 122.241C276.133 122.218 276.222 122.2 276.281 122.186L276.288 123.218C276.188 123.25 276.056 123.28 275.892 123.307C275.732 123.339 275.538 123.355 275.311 123.355C275.001 123.355 274.716 123.294 274.456 123.17C274.196 123.047 273.989 122.842 273.834 122.555C273.684 122.264 273.608 121.872 273.608 121.379V114.024Z"
        fill="white"
    />
    <path
        d="M300.986 113.265V123.218H299.66L294.649 115.542V123.218H293.33V113.265H294.649L299.681 120.962V113.265H300.986ZM302.798 119.602V119.445C302.798 118.912 302.875 118.417 303.03 117.961C303.185 117.501 303.409 117.102 303.7 116.765C303.992 116.423 304.345 116.159 304.76 115.972C305.174 115.781 305.639 115.685 306.154 115.685C306.674 115.685 307.141 115.781 307.556 115.972C307.975 116.159 308.33 116.423 308.622 116.765C308.918 117.102 309.144 117.501 309.299 117.961C309.454 118.417 309.531 118.912 309.531 119.445V119.602C309.531 120.135 309.454 120.63 309.299 121.085C309.144 121.541 308.918 121.94 308.622 122.282C308.33 122.619 307.977 122.883 307.562 123.075C307.152 123.262 306.688 123.355 306.168 123.355C305.648 123.355 305.181 123.262 304.767 123.075C304.352 122.883 303.996 122.619 303.7 122.282C303.409 121.94 303.185 121.541 303.03 121.085C302.875 120.63 302.798 120.135 302.798 119.602ZM304.062 119.445V119.602C304.062 119.971 304.106 120.32 304.192 120.648C304.279 120.972 304.409 121.259 304.582 121.509C304.76 121.76 304.981 121.958 305.245 122.104C305.509 122.245 305.817 122.316 306.168 122.316C306.514 122.316 306.817 122.245 307.077 122.104C307.341 121.958 307.56 121.76 307.733 121.509C307.907 121.259 308.036 120.972 308.123 120.648C308.214 120.32 308.26 119.971 308.26 119.602V119.445C308.26 119.08 308.214 118.736 308.123 118.413C308.036 118.085 307.904 117.795 307.727 117.544C307.553 117.289 307.335 117.089 307.07 116.943C306.811 116.797 306.505 116.724 306.154 116.724C305.808 116.724 305.503 116.797 305.238 116.943C304.979 117.089 304.76 117.289 304.582 117.544C304.409 117.795 304.279 118.085 304.192 118.413C304.106 118.736 304.062 119.08 304.062 119.445ZM313.257 122.077L315.28 115.822H316.572L313.913 123.218H313.065L313.257 122.077ZM311.568 115.822L313.653 122.111L313.797 123.218H312.949L310.27 115.822H311.568Z"
        fill="white"
    />
    <path
        d="M335.879 123.218H333.801L333.814 122.145H335.879C336.59 122.145 337.182 121.997 337.656 121.701C338.13 121.4 338.486 120.981 338.723 120.443C338.964 119.901 339.085 119.267 339.085 118.543V117.934C339.085 117.364 339.017 116.859 338.88 116.417C338.743 115.97 338.543 115.594 338.278 115.289C338.014 114.979 337.69 114.744 337.308 114.585C336.929 114.425 336.494 114.345 336.002 114.345H333.76V113.265H336.002C336.654 113.265 337.248 113.375 337.786 113.593C338.324 113.808 338.786 114.12 339.174 114.53C339.566 114.935 339.867 115.428 340.076 116.006C340.286 116.581 340.391 117.228 340.391 117.948V118.543C340.391 119.263 340.286 119.912 340.076 120.491C339.867 121.065 339.563 121.555 339.167 121.96C338.775 122.366 338.301 122.678 337.745 122.897C337.194 123.111 336.572 123.218 335.879 123.218ZM334.505 113.265V123.218H333.186V113.265H334.505ZM345.251 123.355C344.736 123.355 344.269 123.268 343.85 123.095C343.435 122.918 343.077 122.669 342.776 122.35C342.48 122.031 342.252 121.653 342.093 121.215C341.933 120.778 341.854 120.299 341.854 119.78V119.493C341.854 118.891 341.942 118.356 342.12 117.886C342.298 117.412 342.539 117.011 342.845 116.683C343.15 116.355 343.496 116.107 343.884 115.938C344.271 115.769 344.672 115.685 345.087 115.685C345.616 115.685 346.071 115.776 346.454 115.959C346.841 116.141 347.158 116.396 347.404 116.724C347.65 117.048 347.833 117.431 347.951 117.873C348.07 118.31 348.129 118.789 348.129 119.308V119.876H342.605V118.843H346.864V118.748C346.846 118.419 346.778 118.1 346.659 117.791C346.545 117.481 346.363 117.225 346.112 117.025C345.862 116.824 345.52 116.724 345.087 116.724C344.8 116.724 344.535 116.786 344.294 116.909C344.052 117.027 343.845 117.205 343.672 117.442C343.499 117.679 343.364 117.968 343.269 118.31C343.173 118.652 343.125 119.046 343.125 119.493V119.78C343.125 120.131 343.173 120.461 343.269 120.771C343.369 121.076 343.512 121.345 343.699 121.578C343.891 121.81 344.121 121.992 344.39 122.125C344.663 122.257 344.973 122.323 345.319 122.323C345.766 122.323 346.144 122.232 346.454 122.049C346.764 121.867 347.035 121.623 347.268 121.318L348.033 121.926C347.874 122.168 347.671 122.398 347.425 122.617C347.179 122.835 346.876 123.013 346.516 123.15C346.16 123.287 345.739 123.355 345.251 123.355ZM352.565 122.316C352.866 122.316 353.144 122.254 353.399 122.131C353.655 122.008 353.864 121.84 354.028 121.626C354.192 121.407 354.286 121.158 354.309 120.88H355.512C355.489 121.318 355.341 121.726 355.067 122.104C354.799 122.478 354.445 122.781 354.008 123.013C353.57 123.241 353.09 123.355 352.565 123.355C352.009 123.355 351.524 123.257 351.109 123.061C350.699 122.865 350.357 122.596 350.084 122.254C349.815 121.913 349.612 121.521 349.476 121.079C349.343 120.632 349.277 120.16 349.277 119.664V119.377C349.277 118.88 349.343 118.41 349.476 117.968C349.612 117.522 349.815 117.127 350.084 116.786C350.357 116.444 350.699 116.175 351.109 115.979C351.524 115.783 352.009 115.685 352.565 115.685C353.144 115.685 353.65 115.804 354.083 116.041C354.516 116.273 354.855 116.592 355.102 116.998C355.352 117.399 355.489 117.854 355.512 118.365H354.309C354.286 118.059 354.199 117.784 354.049 117.538C353.903 117.292 353.702 117.096 353.447 116.95C353.197 116.799 352.903 116.724 352.565 116.724C352.178 116.724 351.852 116.802 351.588 116.957C351.328 117.107 351.121 117.312 350.966 117.572C350.815 117.827 350.706 118.112 350.638 118.426C350.574 118.736 350.542 119.053 350.542 119.377V119.664C350.542 119.987 350.574 120.306 350.638 120.621C350.701 120.935 350.809 121.22 350.959 121.475C351.114 121.73 351.321 121.935 351.581 122.09C351.845 122.241 352.174 122.316 352.565 122.316Z"
        fill="white"
    />
</svg>